<svg width="83" height="86" viewBox="0 0 83 86" fill="none" xmlns="http://www.w3.org/2000/svg">
                    <path d="M2 61.0268C2 26.0265 3.2198 11.3805 10.5 6.52676C19.5 0.526422 67.2931 -1.97349 75.5 15.0264C82.5001 29.5264 82.724 66.1619 72.5 74.5267C61.5 83.5264 47 83.5264 40.5 83.5264C34 83.5264 8.5 83.5264 2 67.5264" stroke="#275DEA" stroke-width="4" stroke-linecap="round"/>
                    <path d="M34.5 25C26.5 31.9999 24 33.9999 23 36" stroke="#275DEA" stroke-width="4" stroke-linecap="round"/>
                    <path d="M49.5775 34.5645C44.5775 26.5645 52.5775 23.0645 58.0775 26.0645C63.5775 29.0645 61.5775 36.0645 55.0775 37.5645" stroke="#275DEA" stroke-width="4" stroke-linecap="round"/>
                    <path d="M23 24C34 37 33 36 34.5 38.5" stroke="#275DEA" stroke-width="4" stroke-linecap="round"/>
                    <path d="M31.5 48.5C34 56.5 35 58 39.5 59C43.2172 59.826 48.5 57.5 49 52" stroke="#275DEA" stroke-width="4" stroke-linecap="round"/>
                </svg>