<svg width="65" height="58" viewBox="0 0 65 58" fill="none" xmlns="http://www.w3.org/2000/svg">
    <path d="M41.2448 26.8154C30.7333 26.9077 25.8608 27.275 23.7727 27.4324" stroke="#275DEA" stroke-width="4" stroke-linecap="round"/>
    <path d="M33.0532 18.6855C33.3567 35.4573 33.2154 34.0684 32.8019 36.8986" stroke="#275DEA" stroke-width="4" stroke-linecap="round"/>
    <path d="M50.4985 20.9231C54.0399 10.9176 55.2358 7.95138 55.1431 5.73745" stroke="#275DEA" stroke-width="4" stroke-linecap="round"/>
    <path d="M60.8535 16.0116C50.4225 10.0133 47.1567 9.65894 44.0743 9.3647" stroke="#275DEA" stroke-width="4" stroke-linecap="round"/>
    <path d="M60.1837 48.4033C50.4643 42.314 48.7371 39.9981 46.6082 39.4213" stroke="#275DEA" stroke-width="4" stroke-linecap="round"/>
    <path d="M58.0793 37.0383C48.0398 50.3341 47.8845 48.516 45.8203 50.4735" stroke="#275DEA" stroke-width="4" stroke-linecap="round"/>
    <path d="M9.29854 51.3242C16.0432 43.4391 18.1783 41.1595 18.8568 39.0663" stroke="#275DEA" stroke-width="4" stroke-linecap="round"/>
    <path d="M20.6116 50.8804C8.02884 39.448 8.85686 39.7844 6.71838 36.5201" stroke="#275DEA" stroke-width="4" stroke-linecap="round"/>
    <path d="M7.13578 8.37423C16.8609 14.6519 19.5896 15.9965 21.7388 18.1455" stroke="#275DEA" stroke-width="4" stroke-linecap="round"/>
    <path d="M8.81226 19.6376C18.8219 6.40784 18.0873 7.57347 20.1535 5.6211" stroke="#275DEA" stroke-width="4" stroke-linecap="round"/>
</svg>